<svg xmlns="http://www.w3.org/2000/svg" xmlns:xlink="http://www.w3.org/1999/xlink" width="2000" zoomAndPan="magnify" viewBox="0 0 1500 1499.999933" height="2000" preserveAspectRatio="xMidYMid meet" version="1.0"><defs><g/><clipPath id="a8145c0947"><path d="M 127.835938 127.835938 L 1372.164062 127.835938 L 1372.164062 1372.164062 L 127.835938 1372.164062 Z M 127.835938 127.835938 " clip-rule="nonzero"/></clipPath><clipPath id="d9ac50f16c"><path d="M 750 127.835938 C 406.386719 127.835938 127.835938 406.386719 127.835938 750 C 127.835938 1093.613281 406.386719 1372.164062 750 1372.164062 C 1093.613281 1372.164062 1372.164062 1093.613281 1372.164062 750 C 1372.164062 406.386719 1093.613281 127.835938 750 127.835938 Z M 750 127.835938 " clip-rule="nonzero"/></clipPath><clipPath id="c9efbc90c3"><path d="M 0.835938 0.835938 L 1245.164062 0.835938 L 1245.164062 1245.164062 L 0.835938 1245.164062 Z M 0.835938 0.835938 " clip-rule="nonzero"/></clipPath><clipPath id="533499ac0c"><path d="M 623 0.835938 C 279.386719 0.835938 0.835938 279.386719 0.835938 623 C 0.835938 966.613281 279.386719 1245.164062 623 1245.164062 C 966.613281 1245.164062 1245.164062 966.613281 1245.164062 623 C 1245.164062 279.386719 966.613281 0.835938 623 0.835938 Z M 623 0.835938 " clip-rule="nonzero"/></clipPath><clipPath id="f29305c918"><rect x="0" width="1246" y="0" height="1246"/></clipPath><clipPath id="f91f2902bb"><rect x="0" width="775" y="0" height="1441"/></clipPath></defs><g clip-path="url(#a8145c0947)"><g clip-path="url(#d9ac50f16c)"><g transform="matrix(1, 0, 0, 1, 127, 127)"><g clip-path="url(#f29305c918)"><g clip-path="url(#c9efbc90c3)"><g clip-path="url(#533499ac0c)"><path fill="#7d52e0" d="M 0.835938 0.835938 L 1245.164062 0.835938 L 1245.164062 1245.164062 L 0.835938 1245.164062 Z M 0.835938 0.835938 " fill-opacity="1" fill-rule="nonzero"/></g></g></g></g></g></g><g transform="matrix(1, 0, 0, 1, 365, 59)"><g clip-path="url(#f91f2902bb)"><g fill="#ffffff" fill-opacity="1"><g transform="translate(0.474995, 1107.080963)"><g><path d="M 759.546875 -739.53125 L 497.234375 0 L 271.796875 0 L 9.484375 -739.53125 L 201.203125 -739.53125 L 384.515625 -181.1875 L 568.859375 -739.53125 Z M 759.546875 -739.53125 "/></g></g></g></g></g></svg>